<svg class="nav__logo-img" xmlns="http://www.w3.org/2000/svg" viewBox="0 0 405.41 76.8">
    <g id="Capa_2" data-name="Capa 2">
        <g id="Capa_1-2" data-name="Capa 1">
            <polygon points="64 0 38.41 19.2 12.8 0 0 0 0 54.4 12.8 44.8 12.8 16 38.41 35.19 64 16 64 24 76.8 14.4 76.8 0 64 0" />
            <polygon points="64 60.8 38.41 41.61 12.8 60.8 12.8 52.8 0 62.41 0 76.8 12.8 76.8 38.41 57.6 64 76.8 76.8 76.8 76.8 22.4 64 32 64 60.8" />
            <path d="M127.33,25.76V51h-2.56V30.82l-9.45,17h-1.26l-9.45-16.91V51h-2.56V25.76h2.2l10.49,18.75,10.39-18.75Z" />
            <path d="M151.16,44.72H137.72L134.94,51h-3.72l11.45-25.28h3.57L157.73,51h-3.79Zm-1.27-2.89-5.45-12.39L139,41.83Z" />
            <path d="M169.07,29.73h-8.38v-4h21.45v4h-8.38V51h-4.69Z" />
            <path d="M204.68,46.35V51H185.1V25.76h19.11v4.7h-13.3v5.48h11.74V40.5H190.91v5.85Z" />
            <path d="M214.46,49.82a12.89,12.89,0,0,1,0-22.84,16.05,16.05,0,0,1,14.38,0,12.89,12.89,0,0,1,0,22.84,16.05,16.05,0,0,1-14.38,0Zm10.65-5.11a6.44,6.44,0,0,0,2.45-2.54,8.33,8.33,0,0,0,0-7.53,6.47,6.47,0,0,0-2.45-2.55,7.1,7.1,0,0,0-6.92,0,6.54,6.54,0,0,0-2.45,2.55,8.33,8.33,0,0,0,0,7.53,6.51,6.51,0,0,0,2.45,2.54,7.1,7.1,0,0,0,6.92,0Z" />
            <path d="M291.83,46.13H281.14l-2,4.91h-7.29L283,25.76h7L301.26,51h-7.44Zm-2.09-5.27-3.25-8-3.26,8Z" />
            <path d="M306.24,25.76h11.48A16.11,16.11,0,0,1,325,27.33a11.67,11.67,0,0,1,4.91,4.43,12.4,12.4,0,0,1,1.76,6.64,12.44,12.44,0,0,1-1.76,6.65A11.71,11.71,0,0,1,325,49.47,16.11,16.11,0,0,1,317.72,51H306.24Zm11.19,20.48a8.56,8.56,0,0,0,6.06-2.11,7.49,7.49,0,0,0,2.25-5.73,7.46,7.46,0,0,0-2.25-5.72,8.53,8.53,0,0,0-6.06-2.12h-5.34V46.24Z" />
            <path d="M353.19,51,348,43.64c-.21,0-.54,0-1,0h-5.71V51h-4.69V25.76h10.4a14,14,0,0,1,5.72,1.08A8.31,8.31,0,0,1,356.51,30a8.66,8.66,0,0,1,1.3,4.8,8.57,8.57,0,0,1-1.39,4.92,8.3,8.3,0,0,1-4,3.07l5.82,8.3Zm-1.7-20a7.25,7.25,0,0,0-4.66-1.3h-5.49V39.81h5.49a7.13,7.13,0,0,0,4.66-1.32,4.58,4.58,0,0,0,1.59-3.74A4.54,4.54,0,0,0,351.49,31Z" />
            <path d="M371.72,28.9v19h4.87V51H363.23V47.9h4.87v-19h-4.87V25.76h13.36V28.9Z" />
            <path d="M380.13,25.76h11.74A15.08,15.08,0,0,1,399,27.37a11.69,11.69,0,0,1,4.76,4.48,12.61,12.61,0,0,1,1.7,6.55,12.67,12.67,0,0,1-1.7,6.56A11.83,11.83,0,0,1,399,49.44a15.08,15.08,0,0,1-7.08,1.6H380.13Zm11.59,23a12.28,12.28,0,0,0,5.82-1.32,9.55,9.55,0,0,0,3.86-3.64,10.37,10.37,0,0,0,1.37-5.37A10.3,10.3,0,0,0,401.4,33a9.51,9.51,0,0,0-3.86-3.65,12.28,12.28,0,0,0-5.82-1.32H382.8V48.73Z" />
            <polygon points="261.85 25.76 253.73 31.85 245.6 25.76 238.59 25.76 238.59 51.04 246.3 51.04 246.3 37.25 253.74 42.8 261.11 37.25 261.11 51.04 268.86 51.04 268.86 25.76 261.85 25.76" />
        </g>
    </g>
</svg>